{"glyphs":{"0":{"ha":868,"x_min":58,"x_max":810,"o":"m 810 479 q 710 109 810 243 q 435 -26 610 -26 q 159 111 260 -26 q 58 489 58 248 q 159 866 58 729 q 435 1003 260 1003 q 711 866 612 1003 q 810 479 810 728 m 309 489 q 339 251 309 326 q 435 176 369 176 q 529 252 499 176 q 559 489 559 327 q 529 726 559 650 q 435 802 499 802 q 338 727 368 802 q 309 489 309 653 z "},"1":{"ha":868,"x_min":121,"x_max":581,"o":"m 334 0 l 334 758 l 121 758 l 237 983 l 581 983 l 581 0 l 334 0 z "},"2":{"ha":868,"x_min":26,"x_max":794,"o":"m 785 0 l 26 0 l 472 528 q 532 615 513 576 q 551 688 551 654 q 518 773 551 740 q 432 806 486 806 q 334 765 368 806 q 300 647 300 724 l 300 635 l 61 635 l 61 642 q 160 907 61 810 q 429 1004 258 1004 q 695 918 596 1004 q 794 689 794 832 q 763 553 794 619 q 660 408 732 487 l 481 211 l 785 211 l 785 0 z "},"3":{"ha":868,"x_min":57,"x_max":804,"o":"m 57 329 l 309 329 l 309 313 q 339 214 309 248 q 429 180 370 180 q 525 213 492 180 q 558 306 558 245 q 523 407 558 374 q 411 439 487 439 q 392 438 399 439 q 380 438 386 438 l 380 597 l 395 597 q 500 627 463 597 q 536 714 536 657 q 506 788 536 760 q 427 817 475 817 q 347 789 375 817 q 317 710 318 761 l 77 710 q 174 926 79 849 q 439 1003 269 1003 q 678 934 591 1003 q 765 747 765 865 q 725 620 765 672 q 608 543 685 567 q 753 462 701 526 q 804 298 804 398 q 702 64 804 154 q 433 -26 599 -26 q 158 67 260 -26 q 57 319 57 160 l 57 329 z "},"4":{"ha":868,"x_min":37,"x_max":825,"o":"m 489 418 l 489 707 q 491 773 489 747 q 496 819 492 800 q 467 761 483 790 q 428 696 451 732 l 245 418 l 489 418 m 489 0 l 489 222 l 37 222 l 37 418 l 407 987 l 715 987 l 715 418 l 825 418 l 825 222 l 715 222 l 715 0 l 489 0 z "},"5":{"ha":868,"x_min":82,"x_max":794,"o":"m 742 983 l 742 781 l 366 781 l 346 653 q 407 663 376 660 q 468 667 438 667 q 707 576 619 667 q 794 330 794 486 q 685 69 794 165 q 387 -26 576 -26 q 219 -6 297 -26 q 82 53 141 14 l 100 293 l 121 289 q 218 202 157 234 q 350 171 279 171 q 496 216 444 171 q 547 343 547 261 q 492 472 547 422 q 347 522 436 522 q 239 502 288 522 q 153 441 191 482 l 119 461 l 201 983 l 742 983 z "},"6":{"ha":868,"x_min":61,"x_max":818,"o":"m 435 475 q 325 434 366 475 q 285 322 285 393 q 325 212 285 252 q 435 171 366 171 q 544 212 504 171 q 585 322 585 252 q 544 434 585 393 q 435 475 504 475 m 422 633 q 472 645 446 641 q 526 648 498 648 q 735 560 652 648 q 818 335 818 471 q 714 72 818 171 q 437 -26 611 -26 q 163 71 264 -26 q 61 334 61 169 q 95 508 61 418 q 239 768 130 597 l 378 983 l 654 983 l 422 633 z "},"7":{"ha":868,"x_min":86,"x_max":844,"o":"m 132 0 l 505 761 l 86 761 l 86 983 l 844 983 l 844 936 l 412 0 l 132 0 z "},"8":{"ha":868,"x_min":56,"x_max":812,"o":"m 433 611 q 519 642 488 611 q 551 725 551 672 q 520 808 551 778 q 433 838 489 838 q 348 807 379 838 q 317 725 317 777 q 348 642 317 673 q 433 611 380 611 m 433 172 q 534 208 497 172 q 571 304 571 243 q 534 400 571 365 q 433 435 497 435 q 334 400 370 435 q 297 304 297 365 q 334 208 297 243 q 433 172 371 172 m 608 530 q 759 445 705 513 q 812 273 812 378 q 712 53 812 132 q 433 -26 612 -26 q 155 53 255 -26 q 56 273 56 132 q 109 445 56 378 q 260 530 163 513 q 138 603 181 549 q 96 734 96 656 q 185 932 96 861 q 433 1003 274 1003 q 683 932 593 1003 q 772 734 772 861 q 730 603 772 656 q 608 530 687 549 z "},"9":{"ha":868,"x_min":58,"x_max":814,"o":"m 441 503 q 551 543 511 503 q 591 654 591 584 q 551 766 591 725 q 441 807 511 807 q 332 766 372 807 q 292 654 292 725 q 332 543 292 584 q 441 503 372 503 m 454 344 q 405 333 431 337 q 350 329 378 329 q 141 417 224 329 q 58 642 58 506 q 161 905 58 806 q 437 1004 264 1004 q 712 907 610 1004 q 814 644 814 809 q 774 458 814 556 q 636 210 735 360 l 498 0 l 222 0 l 454 344 z "},"":{"ha":833,"x_min":69,"x_max":764,"o":"m 69 -245 l 69 979 l 764 979 l 764 -245 l 69 -245 m 147 -168 l 686 -168 l 686 901 l 147 901 l 147 -168 z "}," ":{"ha":435,"x_min":0,"x_max":0,"o":""},"!":{"ha":476,"x_min":102,"x_max":375,"o":"m 113 330 l 113 1039 l 364 1039 l 364 330 l 113 330 m 102 111 q 141 209 102 169 q 237 249 180 249 q 335 209 296 249 q 375 111 375 170 q 335 14 375 54 q 237 -26 295 -26 q 141 14 180 -26 q 102 111 102 54 z "},"\"":{"ha":484,"x_min":52,"x_max":433,"o":"m 282 975 l 433 975 l 433 595 l 282 595 l 282 975 m 52 975 l 200 975 l 200 595 l 52 595 l 52 975 z "},"#":{"ha":1068,"x_min":16,"x_max":1053,"o":"m 479 571 l 424 414 l 590 414 l 646 571 l 479 571 m 464 994 l 633 994 l 539 728 l 699 728 l 794 994 l 964 994 l 869 728 l 1053 728 l 994 571 l 812 571 l 758 415 l 946 415 l 889 258 l 703 258 l 607 -8 l 437 -8 l 532 258 l 372 258 l 277 -8 l 107 -8 l 201 258 l 16 258 l 74 415 l 257 415 l 313 571 l 121 571 l 179 728 l 368 728 l 464 994 z "},"$":{"ha":868,"x_min":39,"x_max":772,"o":"m 161 322 q 280 221 220 254 q 403 187 340 187 q 487 217 454 187 q 521 290 521 246 q 493 365 521 338 q 364 418 465 391 q 150 523 212 460 q 89 694 89 585 q 173 912 89 829 q 410 1011 258 996 l 410 1105 l 497 1105 l 498 1013 q 614 985 557 1006 q 726 926 671 964 l 640 733 q 547 791 595 772 q 450 811 498 811 q 372 788 401 811 q 342 729 342 766 q 368 669 342 692 q 472 627 395 647 q 481 624 475 626 q 700 525 648 579 q 754 437 735 488 q 772 325 772 387 q 687 91 772 184 q 458 -17 602 -2 l 458 -182 l 371 -182 l 371 -20 q 194 16 275 -18 q 39 123 113 51 l 161 322 z "},"%":{"ha":1255,"x_min":33,"x_max":1234,"o":"m 289 559 q 355 599 334 559 q 375 729 375 639 q 355 859 375 819 q 289 899 334 899 q 223 859 243 899 q 203 729 203 819 q 223 599 203 639 q 289 559 243 559 m 545 729 q 475 530 545 604 q 289 456 406 456 q 102 530 172 456 q 33 729 33 604 q 102 929 33 854 q 289 1003 172 1003 q 475 929 406 1003 q 545 729 545 854 m 979 78 q 1045 118 1025 78 q 1065 249 1065 158 q 1045 378 1065 339 q 979 418 1025 418 q 913 378 934 418 q 893 249 893 339 q 913 118 893 158 q 979 78 934 78 m 1234 249 q 1164 48 1234 123 q 979 -26 1095 -26 q 793 48 862 -26 q 724 249 724 123 q 793 448 724 374 q 979 522 862 522 q 1165 448 1096 522 q 1234 249 1234 374 m 267 -26 l 863 1003 l 990 1003 l 390 -26 l 267 -26 z "},"&":{"ha":1120,"x_min":78,"x_max":1090,"o":"m 790 0 l 703 102 q 553 4 631 35 q 378 -26 474 -26 q 162 51 245 -26 q 78 250 78 129 q 133 415 78 344 q 309 550 188 487 q 239 654 262 604 q 216 754 216 705 q 295 921 216 854 q 492 987 373 987 q 705 922 627 987 q 783 743 783 856 q 741 609 783 671 q 614 493 699 547 l 730 371 q 800 433 765 399 q 869 509 834 467 l 1011 363 q 942 285 976 319 q 875 222 909 250 l 1090 0 l 790 0 m 567 236 l 407 411 q 338 335 360 370 q 317 268 317 301 q 347 195 317 224 q 422 165 377 165 q 491 183 455 165 q 567 236 527 200 m 497 610 l 529 636 q 581 692 563 664 q 599 747 599 721 q 575 806 599 783 q 514 828 552 828 q 447 805 471 828 q 422 741 422 781 q 433 700 422 724 q 458 657 443 675 l 497 610 z "},"(":{"ha":504,"x_min":71,"x_max":469,"o":"m 464 -215 l 315 -318 q 131 -3 191 -167 q 71 351 71 161 q 131 707 71 543 q 315 1022 191 871 l 469 922 q 321 664 369 802 q 273 351 273 526 q 320 45 273 184 q 464 -215 367 -94 z "},")":{"ha":504,"x_min":35,"x_max":433,"o":"m 41 -215 q 185 45 139 -94 q 232 351 232 184 q 184 663 232 525 q 35 922 136 802 l 191 1022 q 374 708 314 872 q 433 351 433 543 q 374 -4 433 160 q 191 -318 314 -168 l 41 -215 z "},"*":{"ha":724,"x_min":109,"x_max":615,"o":"m 407 819 l 546 928 l 614 807 l 452 742 l 615 675 l 546 555 l 407 664 l 431 489 l 293 489 l 315 664 l 178 555 l 109 675 l 273 742 l 109 807 l 178 926 l 317 819 l 292 993 l 431 993 l 407 819 z "},"+":{"ha":1157,"x_min":172,"x_max":985,"o":"m 498 828 l 660 828 l 660 493 l 985 493 l 985 336 l 660 336 l 660 0 l 498 0 l 498 336 l 172 336 l 172 493 l 498 493 l 498 828 z "},",":{"ha":433,"x_min":18,"x_max":415,"o":"m 163 225 l 415 225 l 205 -200 l 18 -200 l 163 225 z "},"-":{"ha":633,"x_min":86,"x_max":547,"o":"m 86 231 l 86 452 l 547 452 l 547 231 l 86 231 z "},".":{"ha":433,"x_min":81,"x_max":354,"o":"m 81 111 q 120 208 81 169 q 216 248 159 248 q 315 208 275 248 q 354 111 354 169 q 314 14 354 54 q 216 -26 275 -26 q 120 14 159 -26 q 81 111 81 54 z "},"/":{"ha":636,"x_min":0,"x_max":636,"o":"m 0 -129 l 486 1015 l 636 1015 l 151 -129 l 0 -129 z "},":":{"ha":476,"x_min":102,"x_max":375,"o":"m 102 542 q 141 638 102 600 q 237 677 180 677 q 336 638 296 677 q 375 542 375 600 q 335 444 375 484 q 237 404 295 404 q 141 444 180 404 q 102 542 102 484 m 102 111 q 141 208 102 169 q 237 248 180 248 q 336 208 296 248 q 375 111 375 169 q 335 14 375 54 q 237 -26 295 -26 q 141 14 180 -26 q 102 111 102 54 z "},";":{"ha":476,"x_min":36,"x_max":439,"o":"m 165 542 q 205 638 165 600 q 302 677 245 677 q 400 639 361 677 q 439 542 439 600 q 399 444 439 484 q 302 404 360 404 q 205 444 245 404 q 165 542 165 484 m 180 225 l 433 225 l 224 -200 l 36 -200 l 180 225 z "},"<":{"ha":1157,"x_min":179,"x_max":978,"o":"m 978 823 l 978 652 l 399 414 l 978 178 l 978 5 l 179 335 l 179 493 l 978 823 z "},"=":{"ha":1157,"x_min":172,"x_max":985,"o":"m 172 340 l 985 340 l 985 184 l 172 184 l 172 340 m 172 644 l 985 644 l 985 488 l 172 488 l 172 644 z "},">":{"ha":1157,"x_min":179,"x_max":978,"o":"m 179 823 l 978 493 l 978 335 l 179 5 l 179 178 l 758 414 l 179 652 l 179 823 z "},"?":{"ha":840,"x_min":86,"x_max":753,"o":"m 271 111 q 311 209 271 169 q 408 249 351 249 q 506 209 467 249 q 545 111 545 170 q 505 13 545 53 q 408 -26 466 -26 q 311 14 351 -26 q 271 111 271 54 m 533 336 l 300 336 l 300 616 l 372 616 q 489 648 449 616 q 529 737 529 679 q 498 816 529 784 q 422 848 467 848 q 348 823 375 848 q 318 749 321 798 l 86 749 l 86 751 q 180 963 86 884 q 433 1042 275 1042 q 665 958 577 1042 q 753 739 753 875 q 692 555 753 626 q 534 481 631 484 l 533 336 z "},"@":{"ha":1389,"x_min":56,"x_max":1335,"o":"m 787 178 q 702 96 749 122 q 587 71 654 71 q 420 130 477 71 q 363 304 363 189 q 459 578 363 468 q 696 689 555 689 q 787 668 748 689 q 851 606 825 648 l 886 668 l 1026 668 l 922 254 q 922 250 922 253 q 920 232 920 238 q 930 202 920 212 q 962 192 941 192 q 1125 289 1055 192 q 1196 517 1196 387 q 1074 781 1196 679 q 757 884 952 884 q 571 859 656 884 q 415 785 486 834 q 253 598 310 710 q 196 357 196 487 q 334 30 196 152 q 703 -92 471 -92 q 917 -59 814 -92 q 1107 35 1020 -27 l 1173 -57 q 949 -176 1067 -136 q 703 -215 832 -215 q 462 -182 572 -215 q 267 -83 352 -149 q 108 107 160 -1 q 56 353 56 216 q 92 570 56 467 q 197 758 127 673 q 441 947 298 882 q 758 1011 585 1011 q 975 980 873 1011 q 1152 890 1077 949 q 1289 726 1244 818 q 1335 518 1335 633 q 1290 310 1335 405 q 1161 147 1246 215 q 1057 89 1114 109 q 937 69 999 69 q 828 96 865 69 q 787 178 791 123 m 812 472 q 779 551 806 524 q 704 578 751 578 q 581 495 634 578 q 528 301 528 413 q 551 214 528 245 q 618 183 575 183 q 718 223 675 183 q 778 330 762 263 l 812 472 z "},"[":{"ha":504,"x_min":122,"x_max":467,"o":"m 122 1015 l 467 1015 l 467 851 l 318 851 l 318 -149 l 467 -149 l 467 -313 l 122 -313 l 122 1015 z "},"\\":{"ha":636,"x_min":0,"x_max":636,"o":"m 486 -129 l 0 1015 l 151 1015 l 636 -129 l 486 -129 z "},"]":{"ha":504,"x_min":39,"x_max":382,"o":"m 382 1015 l 382 -313 l 39 -313 l 39 -149 l 186 -149 l 186 851 l 39 851 l 39 1015 l 382 1015 z "},"^":{"ha":1389,"x_min":281,"x_max":1107,"o":"m 596 991 l 791 991 l 1107 610 l 928 610 l 694 842 l 460 610 l 281 610 l 596 991 z "},"_":{"ha":694,"x_min":0,"x_max":694,"o":"m 0 -165 l 694 -165 l 694 -328 l 0 -328 l 0 -165 z "},"`":{"ha":694,"x_min":151,"x_max":465,"o":"m 151 1015 l 342 1015 l 465 778 l 361 778 l 151 1015 z "},"|":{"ha":694,"x_min":267,"x_max":429,"o":"m 267 1061 l 429 1061 l 429 -328 l 267 -328 l 267 1061 z "},"~":{"ha":1157,"x_min":121,"x_max":1038,"o":"m 1038 555 l 1038 383 q 906 313 969 336 q 782 290 843 290 q 722 295 751 290 q 665 310 692 300 q 640 319 656 313 q 380 379 467 379 q 261 354 323 379 q 121 272 199 328 l 121 444 q 261 518 197 494 q 383 542 326 542 q 469 534 426 542 q 584 503 512 526 q 618 491 595 499 q 786 453 726 453 q 904 477 843 453 q 1038 555 964 502 z "},"Å":{"ha":1003,"x_min":-11,"x_max":1014,"o":"m 427 1158 q 448 1106 427 1127 q 501 1084 470 1084 q 556 1106 534 1084 q 578 1158 578 1127 q 555 1213 578 1190 q 501 1235 533 1235 q 449 1212 471 1235 q 427 1158 427 1190 m 368 371 l 637 371 l 536 699 q 524 747 532 713 q 503 832 515 780 q 485 762 494 795 q 468 699 477 729 l 368 371 m -11 0 l 339 993 l 447 990 l 447 993 q 357 1054 391 1008 q 323 1160 323 1099 q 375 1286 323 1235 q 501 1337 427 1337 q 629 1285 576 1337 q 681 1160 681 1234 q 649 1058 681 1102 q 561 993 617 1013 l 561 990 l 665 993 l 1014 0 l 745 0 l 694 178 l 310 178 l 258 0 l -11 0 z "},"å":{"ha":917,"x_min":54,"x_max":823,"o":"m 387 929 q 410 875 387 898 q 464 852 433 852 q 517 875 496 852 q 539 929 539 897 q 517 984 539 962 q 464 1006 496 1006 q 410 983 433 1006 q 387 929 387 960 m 283 929 q 336 1057 283 1004 q 464 1109 388 1109 q 591 1057 538 1109 q 643 929 643 1004 q 591 801 643 854 q 464 749 538 749 q 336 801 388 749 q 283 929 283 853 m 611 343 q 568 470 611 423 q 452 517 526 517 q 335 470 378 517 q 293 343 293 424 q 336 217 293 263 q 452 171 378 171 q 568 217 526 171 q 611 343 611 263 m 823 685 l 823 0 l 602 0 l 602 111 q 495 7 554 40 q 355 -26 435 -26 q 136 74 218 -26 q 54 342 54 174 q 140 608 54 509 q 371 707 226 707 q 504 674 448 707 q 600 572 560 641 l 600 685 l 823 685 z "},"í":{"ha":433,"x_min":96,"x_max":412,"o":"m 96 0 l 96 685 l 338 685 l 338 0 l 96 0 m 412 1015 l 203 778 l 98 778 l 222 1015 l 412 1015 z "},"ì":{"ha":433,"x_min":20,"x_max":338,"o":"m 96 0 l 96 685 l 338 685 l 338 0 l 96 0 m 20 1015 l 211 1015 l 334 778 l 230 778 l 20 1015 z "},"î":{"ha":433,"x_min":-2,"x_max":433,"o":"m 96 0 l 96 685 l 338 685 l 338 0 l 96 0 m -2 778 l 122 1015 l 309 1015 l 433 778 l 329 778 l 216 900 l 102 778 l -2 778 z "},"ï":{"ha":433,"x_min":-14,"x_max":446,"o":"m 96 0 l 96 685 l 338 685 l 338 0 l 96 0 m 251 904 q 280 971 251 943 q 349 1000 309 1000 q 417 972 389 1000 q 446 904 446 944 q 418 834 446 862 q 349 806 390 806 q 279 834 307 806 q 251 904 251 863 m -14 904 q 15 971 -14 943 q 84 1000 45 1000 q 153 972 125 1000 q 180 904 180 944 q 153 833 180 861 q 84 806 126 806 q 15 834 43 806 q -14 904 -14 863 z "},"†":{"ha":827,"x_min":47,"x_max":779,"o":"m 302 -281 l 302 437 l 47 437 l 47 652 l 302 652 l 302 993 l 524 993 l 524 652 l 779 652 l 779 437 l 524 437 l 524 -281 l 302 -281 z "},"°":{"ha":457,"x_min":18,"x_max":440,"o":"m 229 896 q 150 863 182 896 q 117 785 117 831 q 149 705 117 737 q 229 672 182 672 q 308 705 275 672 q 340 785 340 739 q 308 863 340 831 q 229 896 275 896 m 229 994 q 378 932 317 994 q 440 783 440 871 q 378 634 440 696 q 228 572 316 572 q 79 634 140 572 q 18 783 18 695 q 80 933 18 872 q 229 994 141 994 z "},"¢":{"ha":868,"x_min":132,"x_max":663,"o":"m 663 602 q 593 648 626 633 q 526 663 561 663 q 412 615 454 663 q 370 485 370 567 q 413 358 370 405 q 532 311 457 311 q 601 326 570 311 q 663 371 633 340 l 663 161 q 590 132 625 142 q 519 118 554 121 l 519 -20 l 441 -20 l 441 118 q 211 239 289 146 q 132 484 132 331 q 215 729 132 631 q 441 848 297 826 l 441 964 l 519 964 l 519 850 q 595 835 559 846 q 663 807 631 825 l 663 602 z "},"£":{"ha":868,"x_min":56,"x_max":827,"o":"m 86 518 l 196 518 q 140 621 158 570 q 122 728 122 671 q 217 926 122 848 q 464 1003 312 1003 q 710 921 623 1003 q 802 684 798 838 l 568 684 q 539 779 567 746 q 460 811 512 811 q 388 784 415 811 q 361 713 361 757 q 402 595 361 680 q 437 518 425 547 l 664 518 l 664 422 l 450 422 q 421 316 450 359 q 334 250 393 274 l 336 236 q 358 239 347 238 q 380 240 370 240 q 481 221 420 240 q 567 203 542 203 q 623 218 601 203 q 664 271 644 233 l 827 142 q 727 16 791 58 q 571 -26 662 -26 q 415 8 509 -26 q 288 43 320 43 q 231 28 256 43 q 178 -18 205 14 l 56 132 q 130 209 90 182 q 215 241 170 237 q 245 293 235 266 q 256 351 256 320 q 253 382 256 365 q 244 422 250 399 l 86 422 l 86 518 z "},"§":{"ha":827,"x_min":45,"x_max":781,"o":"m 192 572 q 114 641 140 596 q 89 751 89 685 q 180 944 89 872 q 424 1017 271 1017 q 663 942 578 1017 q 751 729 747 868 l 500 729 l 500 743 q 475 813 500 788 q 406 838 450 838 q 337 812 363 838 q 311 746 311 787 q 442 656 311 671 q 500 648 479 652 q 715 559 649 626 q 781 364 781 492 q 744 222 781 279 q 635 139 707 165 q 712 71 688 114 q 737 -40 737 27 q 647 -234 737 -161 q 403 -307 556 -307 q 162 -231 247 -307 q 75 -11 77 -154 l 326 -11 l 326 -26 q 351 -101 326 -75 q 421 -127 375 -127 q 489 -102 463 -127 q 515 -36 515 -77 q 382 55 515 39 q 327 62 346 60 q 111 153 177 85 q 45 349 45 220 q 83 489 45 431 q 192 572 121 547 m 415 479 q 329 445 363 479 q 294 358 294 411 q 328 266 294 302 q 411 229 361 229 q 498 265 463 229 q 533 353 533 300 q 499 443 533 407 q 415 479 465 479 z "},"•":{"ha":819,"x_min":208,"x_max":610,"o":"m 208 517 q 267 659 208 600 q 410 717 326 717 q 551 658 492 717 q 610 517 610 600 q 550 375 610 434 q 408 315 491 315 q 267 374 325 315 q 208 517 208 433 z "},"¶":{"ha":694,"x_min":20,"x_max":676,"o":"m 676 1003 l 676 920 l 604 920 l 604 0 l 485 0 l 485 920 l 383 920 l 383 0 l 265 0 l 265 532 q 87 600 154 536 q 20 766 20 665 q 92 938 20 873 q 283 1003 163 1003 l 676 1003 z "},"ß":{"ha":917,"x_min":93,"x_max":868,"o":"m 93 0 l 93 697 q 109 863 93 806 q 163 961 125 920 q 282 1037 207 1010 q 450 1064 357 1064 q 714 994 619 1064 q 808 799 808 924 q 766 668 808 720 q 640 591 724 616 q 808 508 747 580 q 868 319 868 436 q 772 72 868 159 q 498 -16 675 -16 q 461 -15 486 -16 q 422 -14 435 -14 l 422 167 q 436 166 429 166 q 458 165 444 165 q 585 209 542 165 q 628 336 628 252 q 582 461 628 418 q 447 504 536 504 q 436 503 444 504 q 422 503 427 503 l 422 656 l 428 656 q 549 686 509 656 q 589 779 589 717 q 556 860 589 830 q 468 889 524 889 q 384 867 416 889 q 342 806 351 846 q 333 736 336 779 q 330 607 330 692 l 330 543 l 330 0 l 93 0 z "},"®":{"ha":1157,"x_min":72,"x_max":1084,"o":"m 517 693 l 517 545 l 571 545 q 646 563 621 545 q 671 616 671 581 q 645 675 671 656 q 562 693 619 693 l 517 693 m 364 789 l 587 789 q 767 748 705 789 q 828 628 828 707 q 797 534 828 573 q 710 478 766 494 l 833 233 l 665 233 l 561 454 l 517 454 l 517 233 l 364 233 l 364 789 m 579 916 q 422 886 495 916 q 290 799 349 856 q 197 661 229 738 q 165 500 165 585 q 195 345 165 418 q 283 212 225 271 q 418 119 342 151 q 578 86 494 86 q 735 117 660 86 q 871 205 811 148 q 962 339 930 263 q 993 500 993 414 q 963 658 993 584 q 876 790 933 732 q 740 884 816 852 q 579 916 665 916 m 578 1007 q 777 968 684 1007 q 943 854 871 929 q 1048 693 1012 784 q 1084 500 1084 602 q 1046 302 1084 395 q 935 140 1008 210 q 768 31 861 69 q 578 -7 676 -7 q 383 33 475 -7 q 218 147 291 72 q 110 311 147 220 q 72 500 72 401 q 112 696 72 602 q 227 864 152 791 q 387 971 298 935 q 578 1007 477 1007 z "},"©":{"ha":1157,"x_min":72,"x_max":1084,"o":"m 828 604 l 684 604 q 651 675 679 650 q 578 700 624 700 q 490 648 522 700 q 458 501 458 595 q 491 357 458 406 q 585 309 523 309 q 657 336 630 309 q 688 414 684 363 l 833 414 q 761 258 829 317 q 582 199 692 199 q 378 278 453 199 q 302 496 302 358 q 378 719 302 636 q 581 802 453 802 q 755 747 687 802 q 828 604 823 693 m 579 916 q 420 885 494 916 q 288 794 346 854 q 196 658 228 734 q 164 500 164 582 q 196 343 164 419 q 288 208 228 268 q 422 118 347 149 q 579 86 497 86 q 738 118 661 86 q 875 210 814 150 q 963 340 933 267 q 993 500 993 414 q 962 660 993 585 q 873 793 932 734 q 739 884 814 853 q 579 916 664 916 m 578 1007 q 774 969 682 1007 q 939 859 866 931 q 1047 695 1010 787 q 1084 500 1084 604 q 1048 305 1084 396 q 940 144 1011 214 q 772 32 866 71 q 578 -7 679 -7 q 386 32 477 -7 q 221 143 294 71 q 110 307 149 216 q 72 500 72 398 q 111 693 72 600 q 222 860 150 786 q 384 969 294 932 q 578 1007 474 1007 z "},"™":{"ha":1157,"x_min":127,"x_max":996,"o":"m 541 993 l 692 993 l 768 787 l 846 993 l 996 993 l 996 619 l 890 619 l 890 884 l 791 619 l 747 619 l 646 884 l 646 619 l 541 619 l 541 993 m 127 993 l 468 993 l 468 907 l 357 907 l 357 619 l 239 619 l 239 907 l 127 907 l 127 993 z "},"´":{"ha":694,"x_min":229,"x_max":543,"o":"m 543 1015 l 334 778 l 229 778 l 353 1015 l 543 1015 z "},"¨":{"ha":694,"x_min":117,"x_max":576,"o":"m 382 904 q 411 971 382 943 q 479 1000 439 1000 q 548 972 519 1000 q 576 904 576 944 q 549 834 576 862 q 479 806 521 806 q 410 834 438 806 q 382 904 382 863 m 117 904 q 146 971 117 943 q 215 1000 176 1000 q 283 972 256 1000 q 311 904 311 944 q 284 833 311 861 q 215 806 257 806 q 145 834 174 806 q 117 904 117 863 z "},"Æ":{"ha":1196,"x_min":-22,"x_max":1217,"o":"m 349 371 l 545 371 l 481 589 q 467 641 475 608 q 447 722 458 674 q 431 658 439 690 q 412 589 423 627 l 349 371 m -22 0 l 321 993 l 914 993 l 981 775 l 660 775 l 717 603 l 1034 603 l 1099 390 l 786 390 l 842 222 l 1150 222 l 1217 0 l 653 0 l 602 178 l 296 178 l 245 0 l -22 0 z "},"Ø":{"ha":1189,"x_min":64,"x_max":1125,"o":"m 436 273 q 508 234 468 247 q 595 221 547 221 q 787 302 708 221 q 865 500 865 382 q 852 590 865 549 q 811 661 838 630 l 436 273 m 745 724 q 674 760 711 748 q 595 772 637 772 q 404 692 482 772 q 325 496 325 612 q 336 413 325 452 q 372 338 348 374 l 745 724 m 139 -32 l 77 32 l 192 151 q 95 314 127 229 q 64 496 64 399 q 104 696 64 602 q 220 864 144 790 q 394 978 296 939 q 603 1017 492 1017 q 772 990 694 1017 q 921 907 850 963 l 1026 1017 l 1092 953 l 989 846 q 1090 686 1055 777 q 1125 496 1125 596 q 1085 296 1125 390 q 970 127 1045 201 q 798 15 895 54 q 595 -24 702 -24 q 413 5 496 -24 q 258 92 330 33 l 139 -32 z "},"±":{"ha":1157,"x_min":172,"x_max":985,"o":"m 172 144 l 985 144 l 985 -12 l 172 -12 l 172 144 m 498 842 l 660 842 l 660 625 l 985 625 l 985 468 l 660 468 l 660 252 l 498 252 l 498 468 l 172 468 l 172 625 l 498 625 l 498 842 z "},"µ":{"ha":892,"x_min":-31,"x_max":854,"o":"m 131 739 l 374 739 l 319 380 q 313 328 315 353 q 311 283 311 303 q 335 197 311 226 q 408 168 359 168 q 502 215 468 168 q 553 364 536 261 l 612 739 l 854 739 l 736 0 l 518 0 l 530 85 q 470 12 503 34 q 389 -11 436 -11 q 316 10 349 -11 q 264 71 284 31 l 208 -290 l -31 -290 l 131 739 z "},"ª":{"ha":688,"x_min":40,"x_max":618,"o":"m 458 754 q 426 843 458 810 q 339 875 394 875 q 252 843 283 875 q 220 754 220 810 q 252 666 220 698 q 339 633 283 633 q 426 666 394 633 q 458 754 458 698 m 618 993 l 618 514 l 452 514 l 452 591 q 372 519 416 542 q 267 496 328 496 q 102 566 164 496 q 40 753 40 636 q 104 939 40 870 q 278 1008 169 1008 q 379 985 337 1008 q 450 914 421 962 l 450 993 l 618 993 z "},"º":{"ha":648,"x_min":37,"x_max":611,"o":"m 432 753 q 403 837 432 806 q 323 868 374 868 q 245 837 274 868 q 216 753 216 806 q 245 668 216 699 q 323 637 273 637 q 403 668 374 637 q 432 753 432 699 m 611 753 q 590 654 611 700 q 528 571 569 608 q 434 515 486 534 q 323 496 382 496 q 214 515 265 496 q 121 571 162 534 q 59 654 80 607 q 37 753 37 701 q 58 852 37 806 q 121 935 79 898 q 213 990 161 971 q 323 1008 264 1008 q 435 990 383 1008 q 528 935 488 971 q 590 851 569 897 q 611 753 611 804 z "},"ø":{"ha":865,"x_min":50,"x_max":815,"o":"m 526 486 q 485 508 507 501 q 431 515 462 515 q 323 467 363 515 q 282 339 282 418 q 286 288 282 307 q 298 253 290 268 l 526 486 m 340 199 q 381 175 357 183 q 435 167 405 167 q 544 215 503 167 q 585 343 585 262 q 581 387 585 365 q 570 431 577 409 l 340 199 m 125 -32 l 68 25 l 143 102 q 73 217 96 159 q 50 342 50 276 q 78 483 50 416 q 161 602 106 549 q 285 681 215 653 q 432 708 355 708 q 555 689 496 708 q 665 633 614 671 l 755 726 l 814 675 l 725 581 q 792 472 769 534 q 815 342 815 410 q 786 200 815 267 q 703 82 758 134 q 579 2 649 30 q 432 -25 509 -25 q 304 -6 363 -25 q 204 47 245 12 l 125 -32 z "},"¿":{"ha":840,"x_min":83,"x_max":750,"o":"m 566 901 q 526 804 566 844 q 428 764 486 764 q 331 803 370 764 q 292 901 292 843 q 331 999 292 960 q 428 1039 370 1039 q 525 999 485 1039 q 566 901 566 959 m 302 676 l 536 676 l 536 396 l 464 396 q 348 365 388 396 q 307 273 307 333 q 338 196 307 227 q 414 164 369 164 q 488 190 461 164 q 518 264 515 215 l 750 264 l 750 261 q 656 49 750 128 q 403 -31 562 -31 q 171 53 259 -31 q 83 273 83 137 q 144 458 83 387 q 302 532 205 529 l 302 676 z "},"¡":{"ha":476,"x_min":102,"x_max":375,"o":"m 113 682 l 364 682 l 364 -26 l 113 -26 l 113 682 m 102 901 q 141 999 102 959 q 237 1039 180 1039 q 335 999 295 1039 q 375 901 375 959 q 335 803 375 843 q 237 764 296 764 q 141 804 180 764 q 102 901 102 844 z "},"¬":{"ha":1157,"x_min":172,"x_max":985,"o":"m 172 587 l 985 587 l 985 248 l 829 248 l 829 433 l 172 433 l 172 587 z "},"ƒ":{"ha":868,"x_min":66,"x_max":764,"o":"m 106 -79 q 127 -83 117 -82 q 149 -85 138 -85 q 269 146 231 -85 q 278 199 275 180 l 323 468 l 197 468 l 225 636 l 351 636 l 370 739 l 370 739 q 465 951 397 896 q 541 991 498 978 q 639 1004 585 1004 q 700 999 669 1004 q 764 985 732 994 l 733 808 q 700 821 713 817 q 675 825 686 825 q 625 804 642 825 q 597 729 607 783 l 582 636 l 704 636 l 676 468 l 553 468 l 494 117 q 390 -191 456 -117 q 182 -264 325 -264 q 128 -260 157 -264 q 66 -250 100 -257 l 106 -79 z "},"«":{"ha":755,"x_min":31,"x_max":725,"o":"m 273 672 l 404 582 l 225 340 l 404 104 l 273 9 l 31 340 l 273 672 m 596 672 l 725 582 l 547 340 l 725 104 l 596 9 l 351 340 l 596 672 z "},"»":{"ha":755,"x_min":31,"x_max":725,"o":"m 481 672 l 725 340 l 481 9 l 351 104 l 529 340 l 351 582 l 481 672 m 160 672 l 403 340 l 160 9 l 31 104 l 208 340 l 31 582 l 160 672 z "},"…":{"ha":1389,"x_min":96,"x_max":1296,"o":"m 96 111 q 135 208 96 169 q 232 248 174 248 q 330 208 291 248 q 370 111 370 169 q 330 14 370 54 q 232 -26 290 -26 q 136 14 175 -26 q 96 111 96 54 m 559 111 q 598 208 559 169 q 694 248 637 248 q 793 208 753 248 q 832 111 832 169 q 792 14 832 54 q 694 -26 753 -26 q 598 14 637 -26 q 559 111 559 54 m 1023 111 q 1062 208 1023 169 q 1158 248 1101 248 q 1257 208 1217 248 q 1296 111 1296 169 q 1256 14 1296 54 q 1158 -26 1217 -26 q 1062 14 1101 -26 q 1023 111 1023 54 z "}," ":{"ha":868,"x_min":0,"x_max":0,"o":""},"Œ":{"ha":1508,"x_min":64,"x_max":1463,"o":"m 595 196 q 788 279 714 196 q 863 496 863 361 q 788 714 863 630 q 595 798 713 798 q 402 711 479 798 q 326 496 326 625 q 401 280 326 364 q 595 196 476 196 m 879 993 l 1463 993 l 1463 775 l 1118 775 l 1118 603 l 1443 603 l 1443 390 l 1118 390 l 1118 222 l 1463 222 l 1463 0 l 879 0 l 879 135 q 740 13 819 52 q 553 -26 661 -26 q 369 8 452 -26 q 216 113 286 42 q 102 286 140 190 q 64 496 64 382 q 103 708 64 607 q 215 879 143 808 q 376 984 286 949 q 578 1019 466 1019 q 751 984 675 1019 q 879 879 827 949 l 879 993 z "},"–":{"ha":694,"x_min":0,"x_max":694,"o":"m 0 249 l 0 433 l 694 433 l 694 249 l 0 249 z "},"—":{"ha":1389,"x_min":0,"x_max":1389,"o":"m 0 249 l 0 433 l 1389 433 l 1389 249 l 0 249 z "},"“":{"ha":785,"x_min":18,"x_max":766,"o":"m 623 568 l 370 568 l 579 993 l 766 993 l 623 568 m 272 568 l 18 568 l 228 993 l 415 993 l 272 568 z "},"”":{"ha":785,"x_min":18,"x_max":766,"o":"m 163 993 l 415 993 l 205 568 l 18 568 l 163 993 m 513 993 l 766 993 l 557 568 l 370 568 l 513 993 z "},"‘":{"ha":433,"x_min":18,"x_max":415,"o":"m 272 568 l 18 568 l 228 993 l 415 993 l 272 568 z "},"’":{"ha":433,"x_min":18,"x_max":415,"o":"m 163 993 l 415 993 l 205 568 l 18 568 l 163 993 z "},"÷":{"ha":1157,"x_min":172,"x_max":985,"o":"m 579 252 q 658 219 625 252 q 690 139 690 186 q 658 60 690 93 q 579 28 626 28 q 499 60 532 28 q 467 139 467 93 q 500 218 467 185 q 579 252 533 252 m 172 493 l 985 493 l 985 336 l 172 336 l 172 493 m 579 802 q 657 768 625 802 q 690 689 690 735 q 657 610 690 643 q 578 578 625 578 q 499 610 531 578 q 467 689 467 643 q 500 768 467 735 q 579 802 533 802 z "},"¤":{"ha":842,"x_min":41,"x_max":803,"o":"m 422 777 q 298 724 350 777 q 245 600 245 672 q 297 475 245 527 q 422 424 349 424 q 547 475 495 424 q 599 600 599 527 q 547 724 599 672 q 422 777 495 777 m 121 979 l 258 843 q 335 881 295 868 q 421 893 376 893 q 509 881 468 893 q 586 843 551 868 l 722 979 l 803 900 l 667 761 q 702 685 690 725 q 714 600 714 645 q 702 515 714 555 q 667 439 690 475 l 803 301 l 722 221 l 586 358 q 510 321 551 333 q 422 309 470 309 q 335 320 375 309 q 258 358 296 332 l 121 221 l 41 301 l 178 439 q 141 515 153 475 q 129 600 129 555 q 141 686 129 646 q 178 761 154 726 l 41 900 l 121 979 z "},"‹":{"ha":433,"x_min":31,"x_max":404,"o":"m 273 9 l 31 340 l 273 672 l 404 578 l 225 340 l 404 100 l 273 9 z "},"›":{"ha":433,"x_min":31,"x_max":404,"o":"m 160 9 l 31 100 l 208 340 l 31 578 l 160 672 l 404 340 l 160 9 z "},"‡":{"ha":827,"x_min":43,"x_max":783,"o":"m 300 509 l 43 509 l 43 704 l 300 704 l 300 993 l 525 993 l 525 704 l 783 704 l 783 509 l 525 509 l 525 205 l 783 205 l 783 9 l 525 9 l 525 -279 l 300 -279 l 300 9 l 43 9 l 43 205 l 300 205 l 300 509 z "},"‚":{"ha":433,"x_min":18,"x_max":415,"o":"m 163 225 l 415 225 l 205 -200 l 18 -200 l 163 225 z "},"„":{"ha":785,"x_min":18,"x_max":766,"o":"m 163 225 l 415 225 l 205 -200 l 18 -200 l 163 225 m 513 225 l 766 225 l 557 -200 l 370 -200 l 513 225 z "},"‰":{"ha":1832,"x_min":33,"x_max":1810,"o":"m 289 559 q 355 599 334 559 q 375 729 375 639 q 355 859 375 819 q 289 899 334 899 q 223 859 243 899 q 203 729 203 819 q 223 599 203 639 q 289 559 243 559 m 545 729 q 475 530 545 604 q 289 456 406 456 q 102 530 172 456 q 33 729 33 604 q 102 929 33 854 q 289 1003 172 1003 q 475 929 406 1003 q 545 729 545 854 m 1554 78 q 1620 118 1600 78 q 1640 249 1640 158 q 1620 378 1640 339 q 1554 418 1600 418 q 1489 378 1509 418 q 1468 249 1468 339 q 1489 118 1468 158 q 1554 78 1509 78 m 1810 249 q 1741 48 1810 123 q 1554 -26 1671 -26 q 1369 48 1438 -26 q 1300 249 1300 123 q 1369 448 1300 374 q 1554 522 1437 522 q 1741 448 1672 522 q 1810 249 1810 374 m 979 78 q 1045 118 1025 78 q 1065 249 1065 158 q 1045 378 1065 339 q 979 418 1025 418 q 913 378 934 418 q 893 249 893 339 q 913 118 893 158 q 979 78 934 78 m 1234 249 q 1164 48 1234 123 q 979 -26 1095 -26 q 793 48 862 -26 q 724 249 724 123 q 793 448 724 374 q 979 522 862 522 q 1165 448 1096 522 q 1234 249 1234 374 m 267 -26 l 863 1003 l 990 1003 l 390 -26 l 267 -26 z "},"ˆ":{"ha":694,"x_min":129,"x_max":564,"o":"m 129 778 l 253 1015 l 440 1015 l 564 778 l 460 778 l 347 900 l 233 778 l 129 778 z "},"˜":{"ha":694,"x_min":122,"x_max":572,"o":"m 572 996 q 516 867 552 908 q 424 827 480 827 q 396 828 408 827 q 372 833 383 830 l 310 851 q 308 852 309 852 q 264 861 273 861 q 227 848 241 861 q 203 806 212 835 l 122 806 q 177 934 141 892 q 268 975 212 975 q 294 972 279 975 q 329 964 309 970 l 393 946 q 411 941 401 943 q 432 940 420 940 q 469 954 454 940 q 492 996 484 968 l 572 996 z "},"¯":{"ha":694,"x_min":139,"x_max":555,"o":"m 139 846 l 139 960 l 555 960 l 555 846 l 139 846 z "},"¸":{"ha":694,"x_min":184,"x_max":554,"o":"m 184 -298 l 184 -204 q 286 -227 239 -219 q 368 -235 333 -235 q 412 -223 397 -235 q 427 -186 427 -211 q 407 -154 427 -164 q 346 -143 388 -143 q 323 -143 332 -143 q 309 -144 315 -144 l 309 0 l 386 0 l 386 -57 l 399 -57 q 514 -91 474 -57 q 554 -187 554 -124 q 509 -292 554 -255 q 382 -329 465 -329 q 291 -321 340 -329 q 184 -298 241 -314 z "},"¦":{"ha":694,"x_min":267,"x_max":429,"o":"m 267 277 l 429 277 l 429 -237 l 267 -237 l 267 277 m 267 971 l 429 971 l 429 457 l 267 457 l 267 971 z "},"Ð":{"ha":1079,"x_min":0,"x_max":1015,"o":"m 121 0 l 121 416 l 0 416 l 0 591 l 121 591 l 121 993 l 326 993 q 655 971 559 993 q 823 899 751 949 q 966 730 918 833 q 1015 496 1015 627 q 966 261 1015 364 q 823 93 918 159 q 659 21 751 43 q 372 0 566 0 l 326 0 l 121 0 m 387 222 l 435 222 q 667 288 594 222 q 741 496 741 353 q 667 705 741 638 q 435 771 593 771 l 387 771 l 387 591 l 572 591 l 572 416 l 387 416 l 387 222 z "},"ð":{"ha":865,"x_min":50,"x_max":815,"o":"m 575 321 q 536 428 575 389 q 432 468 498 468 q 327 428 366 468 q 289 321 289 389 q 327 214 289 254 q 432 175 366 175 q 536 215 498 175 q 575 321 575 254 m 553 610 q 486 702 523 659 q 404 782 450 745 l 203 689 l 155 775 l 319 847 q 254 885 278 871 q 210 908 229 899 l 290 1050 q 390 1000 338 1029 q 503 929 442 970 l 715 1028 l 764 940 l 586 860 q 759 631 702 751 q 815 372 815 510 q 714 79 815 184 q 432 -26 613 -26 q 284 -1 353 -26 q 161 74 216 24 q 78 184 106 123 q 50 315 50 246 q 78 450 50 387 q 161 564 106 513 q 271 632 209 608 q 401 656 332 656 q 480 644 443 656 q 553 610 517 633 z "},"Þ":{"ha":880,"x_min":106,"x_max":848,"o":"m 359 395 l 411 395 q 547 421 509 395 q 586 511 586 448 q 549 600 586 574 q 414 627 511 627 l 359 627 l 359 395 m 359 176 l 359 0 l 106 0 l 106 993 l 359 993 l 359 842 l 389 842 q 621 825 554 842 q 736 770 688 809 q 820 656 791 724 q 848 503 848 587 q 820 346 848 412 q 736 236 792 279 q 638 190 694 204 q 467 176 583 176 l 408 176 l 359 176 z "},"þ":{"ha":917,"x_min":90,"x_max":860,"o":"m 304 340 q 346 214 304 260 q 461 168 388 168 q 577 214 534 168 q 619 340 619 260 q 577 467 619 420 q 461 513 535 513 q 346 467 388 513 q 304 340 304 420 m 314 111 q 319 59 317 88 q 321 -11 321 30 l 321 -302 l 90 -302 l 90 1051 l 321 1051 l 321 685 q 319 618 321 644 q 313 570 317 591 q 416 673 360 640 q 545 707 473 707 q 774 608 689 707 q 860 340 860 509 q 775 75 860 176 q 553 -26 690 -26 q 411 5 466 -26 q 314 111 357 37 z "},"×":{"ha":1157,"x_min":182,"x_max":999,"o":"m 292 823 l 590 525 l 889 823 l 999 714 l 700 414 l 999 115 l 889 5 l 590 304 l 292 5 l 182 115 l 481 414 l 182 714 l 292 823 z "},"¹":{"ha":574,"x_min":79,"x_max":382,"o":"m 220 390 l 220 846 l 79 846 l 155 981 l 382 981 l 382 390 l 220 390 z "},"²":{"ha":574,"x_min":18,"x_max":525,"o":"m 518 390 l 18 390 l 311 707 q 351 760 338 736 q 364 803 364 783 q 342 854 364 835 q 285 873 321 873 q 221 849 243 873 q 199 779 199 825 l 199 771 l 40 771 l 40 775 q 105 935 40 876 q 283 993 171 993 q 459 941 393 993 q 525 804 525 890 q 505 723 525 763 q 436 635 484 684 l 317 517 l 518 517 l 518 390 z "},"³":{"ha":574,"x_min":37,"x_max":530,"o":"m 37 587 l 204 587 l 204 578 q 224 518 204 538 q 283 498 244 498 q 347 518 325 498 q 368 574 368 537 q 345 635 368 615 q 271 654 321 654 q 259 654 263 654 q 252 653 255 654 l 252 749 l 260 749 q 330 767 305 749 q 354 818 354 785 q 334 863 354 846 q 282 880 314 880 q 229 864 248 880 q 208 817 210 847 l 50 817 q 115 946 52 900 q 290 991 178 991 q 448 950 390 991 q 505 839 505 909 q 478 762 505 793 q 401 717 452 730 q 496 667 463 706 q 530 570 530 629 q 463 429 530 482 q 286 375 395 375 q 104 431 172 375 q 37 582 37 486 l 37 587 z "},"¼":{"ha":1326,"x_min":77,"x_max":1299,"o":"m 1088 235 l 1088 396 q 1088 437 1088 425 q 1091 458 1089 449 q 1073 426 1084 442 q 1048 390 1063 409 l 935 235 l 1088 235 m 1088 0 l 1088 125 l 803 125 l 803 235 l 1036 553 l 1229 553 l 1229 235 l 1299 235 l 1299 125 l 1229 125 l 1229 0 l 1088 0 m 315 -26 l 882 1003 l 1010 1003 l 440 -26 l 315 -26 m 210 429 l 210 854 l 77 854 l 150 979 l 366 979 l 366 429 l 210 429 z "},"½":{"ha":1326,"x_min":77,"x_max":1279,"o":"m 1274 0 l 796 0 l 1076 296 q 1114 344 1101 322 q 1126 385 1126 366 q 1106 433 1126 414 q 1051 452 1085 452 q 990 428 1012 452 q 968 363 968 405 l 968 355 l 818 355 l 818 359 q 880 508 818 454 q 1050 562 942 562 q 1217 514 1155 562 q 1279 386 1279 467 q 1259 309 1279 346 q 1194 229 1239 272 l 1082 118 l 1274 118 l 1274 0 m 315 -26 l 882 1003 l 1010 1003 l 440 -26 l 315 -26 m 210 429 l 210 854 l 77 854 l 150 979 l 366 979 l 366 429 l 210 429 z "},"¾":{"ha":1326,"x_min":36,"x_max":1299,"o":"m 1088 235 l 1088 396 q 1088 437 1088 425 q 1091 458 1089 449 q 1073 426 1084 442 q 1048 390 1063 409 l 935 235 l 1088 235 m 1088 0 l 1088 125 l 803 125 l 803 235 l 1036 553 l 1229 553 l 1229 235 l 1299 235 l 1299 125 l 1229 125 l 1229 0 l 1088 0 m 315 -26 l 882 1003 l 1010 1003 l 440 -26 l 315 -26 m 36 614 l 195 614 l 195 604 q 214 549 195 568 q 271 530 233 530 q 330 549 309 530 q 351 600 351 567 q 329 657 351 639 q 258 675 307 675 q 248 674 252 675 q 240 674 243 674 l 240 764 l 249 764 q 315 781 292 764 q 338 829 338 798 q 318 870 338 854 q 268 886 298 886 q 218 870 236 886 q 200 827 200 854 l 49 827 q 110 948 51 905 q 277 990 169 990 q 427 952 372 990 q 482 847 482 913 q 457 776 482 805 q 383 733 432 747 q 475 688 442 724 q 507 596 507 652 q 442 465 507 515 q 273 414 377 414 q 100 466 164 414 q 36 608 36 519 l 36 614 z "},"­":{"ha":633,"x_min":86,"x_max":547,"o":"m 86 231 l 86 452 l 547 452 l 547 231 l 86 231 z "},"·":{"ha":433,"x_min":81,"x_max":354,"o":"m 81 489 q 120 586 81 547 q 216 625 159 625 q 315 586 275 625 q 354 489 354 547 q 314 391 354 431 q 216 351 275 351 q 120 391 159 351 q 81 489 81 431 z "},"A":{"ha":1050,"x_min":-3,"x_max":1001,"o":"m 739 -29 l 661 235 l 331 235 l 258 -34 l -3 60 l 365 1190 l 623 1236 l 1001 52 l 739 -29 m 492 782 l 404 475 l 584 475 l 492 782 z "},"a":{"ha":861,"x_min":-3,"x_max":820,"o":"m 605 -30 l 541 186 l 271 186 l 210 -34 l -3 43 l 298 969 l 509 1006 l 820 37 l 605 -30 m 403 635 l 330 383 l 478 383 l 403 635 z "},"'":{"ha":294,"x_min":-3,"x_max":280,"o":"m 94 816 l -3 947 q 97 1007 42 962 q 172 1090 151 1052 l 280 966 q 197 872 235 903 q 94 816 159 842 z "},"b":{"ha":668,"x_min":0,"x_max":637,"o":"m 216 570 q 371 623 304 585 q 411 750 437 660 q 333 815 387 806 q 216 798 279 825 l 216 570 m 1 2 l 0 954 q 169 991 81 973 q 336 1001 256 1010 q 483 945 416 993 q 591 784 549 897 q 588 633 611 691 q 515 523 565 574 q 634 319 631 427 q 557 129 637 212 q 331 5 478 45 q 1 2 184 -35 m 216 182 q 375 228 292 182 q 431 363 458 273 q 343 426 407 419 q 216 416 279 433 l 216 182 z "},"B":{"ha":804,"x_min":0,"x_max":766,"o":"m 260 705 q 446 768 366 723 q 494 921 526 812 q 400 1000 465 989 q 260 979 335 1011 l 260 705 m 1 22 l 0 1167 q 203 1212 98 1190 q 404 1223 308 1234 q 580 1156 500 1213 q 709 962 660 1098 q 706 780 734 850 q 619 649 679 710 q 762 404 758 533 q 670 174 766 274 q 398 26 574 75 q 1 22 222 -22 m 260 239 q 451 293 351 239 q 519 456 551 347 q 412 532 490 524 q 260 520 335 540 l 260 239 z "},"d":{"ha":730,"x_min":1,"x_max":695,"o":"m 1 -16 l 3 923 q 280 987 149 965 q 548 912 412 1008 q 665 701 635 823 q 675 454 695 578 q 589 224 654 331 q 421 62 524 117 q 217 -1 333 14 q 1 -16 101 -16 m 224 224 q 399 325 334 225 q 470 535 464 425 q 417 721 476 645 q 224 751 359 798 l 224 224 z "},"D":{"ha":905,"x_min":1,"x_max":863,"o":"m 1 -16 l 4 1150 q 348 1230 184 1203 q 680 1137 512 1257 q 826 874 789 1027 q 838 569 863 722 q 731 283 812 416 q 523 81 650 151 q 269 2 413 21 q 1 -16 125 -16 m 277 283 q 495 408 415 283 q 584 669 576 532 q 518 900 591 806 q 278 937 446 994 l 277 283 z "},"e":{"ha":627,"x_min":42,"x_max":597,"o":"m 42 0 l 42 987 l 597 987 l 541 764 l 264 764 l 264 606 l 501 606 l 441 382 l 264 382 l 264 224 l 597 224 l 538 0 l 42 0 z "},"E":{"ha":767,"x_min":50,"x_max":731,"o":"m 50 0 l 50 1211 l 731 1211 l 661 937 l 323 937 l 323 743 l 614 743 l 540 469 l 323 469 l 323 275 l 731 274 l 659 0 l 50 0 z "},"f":{"ha":618,"x_min":33,"x_max":589,"o":"m 33 22 l 33 987 l 589 987 l 532 764 l 256 764 l 256 606 l 493 606 l 433 382 l 256 382 l 256 -22 l 33 22 z "},"F":{"ha":763,"x_min":46,"x_max":727,"o":"m 46 35 l 46 1215 l 727 1215 l 657 941 l 319 941 l 319 747 l 610 747 l 536 473 l 319 473 l 319 -28 l 46 35 z "},"c":{"ha":733,"x_min":-25,"x_max":699,"o":"m 545 720 q 380 758 463 816 q 253 587 298 700 q 222 357 209 474 q 346 216 235 239 q 499 288 437 218 l 643 115 q 510 19 585 54 q 346 -16 435 -16 q 49 188 123 23 q 7 535 -25 353 q 158 863 39 718 q 440 1011 276 1009 q 699 902 595 1012 l 545 720 z "},"C":{"ha":900,"x_min":-26,"x_max":857,"o":"m 669 878 q 470 924 570 995 q 314 715 369 852 q 276 435 260 578 q 427 264 292 292 q 614 351 538 264 l 789 140 q 628 23 719 66 q 427 -20 536 -20 q 65 229 155 27 q 14 652 -26 430 q 198 1053 53 875 q 543 1233 342 1231 q 721 1197 642 1233 q 857 1099 799 1161 l 669 878 z "},"u":{"ha":776,"x_min":-9,"x_max":739,"o":"m 50 1006 l 262 960 q 232 788 252 909 q 209 542 211 667 q 238 322 207 417 q 363 230 269 228 q 488 326 457 232 q 516 544 519 420 q 491 786 513 667 q 458 957 469 905 l 667 1012 q 714 716 690 891 q 723 380 739 542 q 627 103 706 218 q 364 -13 548 -12 q 102 102 180 -14 q 8 381 24 218 q 13 717 -9 543 q 50 1006 34 891 z "},"U":{"ha":946,"x_min":-12,"x_max":901,"o":"m 59 1232 l 318 1176 q 281 966 307 1114 q 254 665 256 818 q 290 397 252 513 q 443 284 328 281 q 594 401 557 286 q 628 667 631 517 q 597 963 624 817 q 558 1172 571 1108 l 812 1238 q 871 878 841 1092 q 881 467 901 665 q 764 130 861 270 q 444 -12 667 -11 q 124 129 219 -13 q 8 468 28 270 q 14 879 -12 667 q 59 1232 40 1092 z "},"g":{"ha":810,"x_min":-25,"x_max":772,"o":"m 545 720 q 380 756 463 816 q 253 581 298 696 q 222 346 209 466 q 346 204 235 227 q 457 227 395 204 q 541 326 519 250 l 423 325 l 473 511 l 755 512 q 744 296 772 388 q 652 115 715 205 q 514 19 593 54 q 346 -16 435 -16 q 49 188 123 23 q 7 535 -25 353 q 158 863 39 718 q 440 1011 276 1009 q 699 902 595 1012 l 545 720 z "},"G":{"ha":1050,"x_min":24,"x_max":1001,"o":"m 722 885 q 521 928 622 1002 q 366 714 420 855 q 327 428 311 574 q 479 254 343 281 q 614 281 538 254 q 718 402 690 309 l 573 401 l 635 629 l 979 631 q 965 367 1001 478 q 852 145 930 255 q 685 27 782 70 q 479 -16 589 -16 q 115 234 206 32 q 63 659 24 435 q 248 1060 103 882 q 594 1241 393 1239 q 773 1205 694 1242 q 911 1107 852 1169 l 722 885 z "},"h":{"ha":761,"x_min":0,"x_max":725,"o":"m 0 28 l 3 960 l 221 1018 l 221 650 l 497 648 l 496 1017 l 723 966 l 725 28 l 505 -25 l 502 425 l 223 422 l 222 -30 l 0 28 z "},"H":{"ha":928,"x_min":0,"x_max":884,"o":"m 0 41 l 3 1177 l 269 1246 l 269 798 l 606 797 l 604 1245 l 881 1184 l 884 41 l 614 -24 l 611 524 l 272 522 l 271 -30 l 0 41 z "},"n":{"ha":770,"x_min":0,"x_max":734,"o":"m 0 28 l 3 964 l 217 1018 l 497 469 l 496 1017 l 732 966 l 734 28 l 505 -25 q 363 230 437 98 q 223 486 290 363 l 222 -30 l 0 28 z "},"N":{"ha":935,"x_min":0,"x_max":890,"o":"m 0 41 l 3 1178 l 264 1242 l 604 576 l 603 1241 l 888 1180 l 890 40 l 612 -24 q 441 286 530 125 q 271 596 353 447 l 269 -30 l 0 41 z "},"I":{"ha":287,"x_min":0,"x_max":273,"o":"m 0 41 l 2 1141 l 271 1213 l 273 -30 l 0 41 z "},"j":{"ha":628,"x_min":5,"x_max":598,"o":"m 5 214 l 202 296 q 297 211 222 202 q 370 291 371 219 l 370 352 l 370 976 l 598 1010 l 597 281 q 523 85 597 157 q 352 3 450 14 q 155 43 254 -8 q 5 214 56 94 z "},"J":{"ha":760,"x_min":5,"x_max":724,"o":"m 5 260 l 243 359 q 359 256 269 246 q 448 353 450 267 l 448 427 l 448 1184 l 724 1225 l 723 342 q 634 104 723 191 q 426 4 545 18 q 187 52 307 -9 q 5 260 67 114 z "},"k":{"ha":717,"x_min":1,"x_max":683,"o":"m 222 -26 l 1 27 l 1 959 l 218 1014 l 220 692 l 493 1012 l 680 895 l 344 502 l 683 100 l 492 -26 l 222 295 l 222 -26 z "},"K":{"ha":874,"x_min":1,"x_max":833,"o":"m 271 -26 l 1 39 l 1 1175 l 266 1242 l 267 850 l 601 1240 l 829 1097 l 419 618 l 833 128 l 600 -26 l 271 366 l 271 -26 z "},"l":{"ha":530,"x_min":0,"x_max":505,"o":"m 0 0 l 0 987 l 223 1017 l 223 224 l 505 224 l 446 0 l 0 0 z "},"L":{"ha":661,"x_min":0,"x_max":629,"o":"m 0 0 l 0 1211 l 272 1253 l 273 275 l 629 278 l 557 0 l 0 0 z "},"m":{"ha":1199,"x_min":-3,"x_max":1142,"o":"m 456 97 l 353 606 l 210 -34 l -3 43 l 236 969 l 447 1006 l 554 583 l 671 1003 l 882 965 l 1142 37 l 926 -30 l 749 611 l 640 66 l 456 97 z "},"M":{"ha":1431,"x_min":-3,"x_max":1363,"o":"m 545 127 l 421 749 l 252 -34 l -3 60 l 282 1193 l 534 1238 l 661 720 l 801 1234 l 1053 1187 l 1363 52 l 1107 -28 l 895 754 l 765 88 l 545 127 z "},"o":{"ha":875,"x_min":-25,"x_max":833,"o":"m 356 -16 q 35 240 96 29 q 47 654 -25 450 q 293 971 119 859 q 677 935 467 1084 q 810 662 787 825 q 786 348 833 499 q 627 90 738 197 q 356 -16 515 -17 m 356 218 q 496 275 442 218 q 575 410 551 332 q 597 571 600 488 q 567 707 595 654 q 399 762 485 816 q 267 594 314 708 q 231 361 220 481 q 356 218 243 241 z "},"O":{"ha":1055,"x_min":-5,"x_max":1005,"o":"m 426 -16 q 173 96 268 12 q 37 295 79 180 q 1 542 -5 410 q 51 797 7 673 q 172 1024 95 921 q 350 1182 250 1126 q 570 1232 451 1237 q 816 1137 688 1227 q 977 806 949 1003 q 947 425 1005 608 q 754 113 889 242 q 426 -16 619 -17 m 426 267 q 596 337 530 268 q 692 500 662 406 q 719 696 722 595 q 682 861 715 797 q 479 928 583 994 q 318 725 376 862 q 275 441 261 587 q 426 267 290 295 z "},"p":{"ha":676,"x_min":0,"x_max":644,"o":"m 1 29 l 0 954 q 171 996 81 973 q 344 1014 261 1019 q 496 959 427 1008 q 606 784 566 909 q 534 489 644 609 q 219 349 425 370 l 218 -24 l 1 29 m 216 540 q 365 595 292 540 q 411 741 437 651 q 333 807 387 798 q 216 789 279 816 l 216 540 z "},"P":{"ha":815,"x_min":0,"x_max":777,"o":"m 1 40 l 0 1156 q 207 1206 98 1179 q 416 1227 315 1234 q 599 1162 516 1221 q 730 951 682 1102 q 644 596 777 740 q 264 426 511 452 l 262 -24 l 1 40 m 261 656 q 440 723 352 656 q 496 899 528 790 q 401 978 467 967 q 260 957 336 989 l 261 656 z "},"œ":{"ha":1179,"x_min":-28,"x_max":1124,"o":"m 336 0 q 35 229 98 42 q 27 606 -28 416 q 232 919 83 796 q 568 956 380 1042 l 568 987 l 1124 987 l 1067 764 l 791 764 l 791 606 l 1028 606 l 967 382 l 791 382 l 791 224 l 1124 224 l 1065 0 l 568 0 l 568 79 q 336 0 465 0 m 336 224 q 470 279 418 225 q 546 409 522 334 q 568 564 570 484 q 538 694 565 644 q 378 747 460 799 q 250 586 296 694 q 216 362 205 477 q 336 224 228 247 z "},"æ":{"ha":1057,"x_min":1,"x_max":1007,"o":"m 444 697 l 334 383 l 445 383 l 444 697 m 452 0 l 452 191 l 275 191 l 215 -29 l 1 47 l 307 986 l 1007 987 l 949 764 l 674 764 l 674 606 l 911 606 l 850 382 l 672 382 l 672 223 l 1007 224 l 947 0 l 452 0 z "},"q":{"ha":888,"x_min":-26,"x_max":846,"o":"m 356 -16 q 35 240 96 30 q 47 655 -26 451 q 293 972 119 859 q 677 935 467 1084 q 818 586 813 798 q 724 210 822 374 q 737 124 695 159 q 846 81 779 89 l 701 -35 q 615 -16 646 -33 q 553 36 583 1 q 356 -16 463 -16 m 356 218 q 496 276 442 219 q 575 411 551 332 q 597 572 600 489 q 567 708 595 654 q 399 763 485 817 q 267 595 314 709 q 231 361 219 481 q 356 218 243 241 z "},"Q":{"ha":1063,"x_min":-5,"x_max":1013,"o":"m 422 -3 q 172 107 266 24 q 36 305 77 191 q 0 550 -5 419 q 50 805 6 682 q 171 1029 94 928 q 347 1186 248 1131 q 565 1236 447 1241 q 810 1142 683 1232 q 979 722 974 977 q 866 269 984 466 q 882 165 831 207 q 1013 113 932 123 l 838 -26 q 734 -4 772 -24 q 660 58 696 16 q 422 -3 551 -4 m 422 278 q 592 347 526 279 q 687 510 657 416 q 713 704 717 604 q 677 868 710 804 q 475 934 578 999 q 315 732 372 869 q 273 451 258 595 q 422 278 287 306 z "},"r":{"ha":705,"x_min":0,"x_max":672,"o":"m 1 29 l 0 954 q 171 996 81 973 q 344 1014 261 1019 q 496 959 427 1008 q 606 784 566 909 q 577 550 633 659 q 422 406 522 441 q 537 254 496 332 q 672 97 578 177 l 516 -27 q 363 161 418 60 q 219 349 308 261 l 218 -24 l 1 29 m 216 540 q 365 595 292 540 q 411 741 437 651 q 333 807 387 798 q 216 789 279 816 l 216 540 z "},"R":{"ha":863,"x_min":0,"x_max":822,"o":"m 1 41 l 0 1167 q 209 1217 100 1190 q 419 1239 318 1245 q 604 1172 520 1232 q 736 960 688 1112 q 703 674 770 807 q 513 499 635 542 q 656 317 603 409 q 822 128 709 226 l 632 -23 q 444 203 513 83 q 267 431 374 323 l 265 -23 l 1 41 m 263 663 q 444 730 355 663 q 500 907 532 798 q 405 988 470 977 q 262 966 339 999 l 263 663 z "},"s":{"ha":635,"x_min":4,"x_max":605,"o":"m 264 -22 q 117 39 175 -10 q 7 174 60 88 l 184 271 q 267 204 222 214 q 341 215 311 193 q 374 281 370 236 q 334 379 378 326 q 103 571 203 477 q 56 840 4 665 q 162 961 100 918 q 315 1004 223 1004 q 462 964 387 1003 q 566 868 538 926 l 413 769 q 386 787 409 766 q 313 804 363 808 q 257 741 245 781 q 315 658 269 701 q 415 579 360 616 q 490 526 471 542 q 594 347 583 449 q 575 164 605 245 q 462 23 545 83 q 264 -22 380 -37 z "},"S":{"ha":798,"x_min":8,"x_max":760,"o":"m 334 -42 q 150 34 222 -28 q 13 203 78 96 l 235 325 q 338 241 282 254 q 430 254 393 228 q 471 337 467 281 q 422 460 476 393 q 133 701 257 583 q 73 1036 8 819 q 206 1188 129 1135 q 397 1242 283 1242 q 582 1193 487 1242 q 712 1072 677 1145 l 521 948 q 487 971 516 945 q 395 991 458 997 q 326 913 311 964 q 397 809 340 863 q 524 710 454 756 q 617 644 593 664 q 747 420 733 548 q 723 191 760 293 q 582 15 685 90 q 334 -42 479 -60 z "},"é":{"ha":583,"x_min":0,"x_max":555,"o":"m 207 987 l 146 1069 q 247 1128 193 1083 q 323 1212 301 1173 l 430 1087 q 339 987 382 1019 l 555 987 l 498 764 l 223 764 l 223 606 l 459 606 l 399 382 l 223 382 l 223 224 l 555 224 l 496 0 l 0 0 l 0 987 l 207 987 z "},"è":{"ha":583,"x_min":0,"x_max":555,"o":"m 0 0 l 0 987 l 225 987 q 134 1087 182 1019 l 242 1212 q 317 1128 262 1173 q 418 1069 372 1083 l 357 987 l 555 987 l 498 764 l 223 764 l 223 606 l 459 606 l 399 382 l 223 382 l 223 224 l 555 224 l 496 0 l 0 0 z "},"ë":{"ha":583,"x_min":0,"x_max":555,"o":"m 103 987 q 100 1104 115 1051 l 225 1107 q 236 1034 235 1057 q 231 987 237 1012 l 306 987 q 302 1106 317 1053 l 428 1109 q 439 1035 438 1058 q 433 987 439 1013 l 555 987 l 498 764 l 223 764 l 223 606 l 459 606 l 399 382 l 223 382 l 223 224 l 555 224 l 496 0 l 0 0 l 0 987 l 103 987 z "},"ê":{"ha":583,"x_min":0,"x_max":555,"o":"m 0 0 l 0 987 l 132 987 l 78 1058 q 183 1120 153 1096 q 256 1203 213 1143 q 340 1114 300 1144 q 434 1060 381 1084 l 380 987 l 555 987 l 498 764 l 223 764 l 223 606 l 459 606 l 399 382 l 223 382 l 223 224 l 555 224 l 496 0 l 0 0 m 231 987 l 283 987 q 255 1032 260 1025 q 231 987 248 1023 z "},"i":{"ha":239,"x_min":0,"x_max":228,"o":"m 0 18 l 0 971 l 228 1006 l 227 -20 l 0 18 z "},"t":{"ha":668,"x_min":0,"x_max":637,"o":"m 201 24 l 201 766 l 0 764 l 46 989 l 637 988 l 595 764 l 427 765 l 429 -21 l 201 24 z "},"T":{"ha":816,"x_min":0,"x_max":777,"o":"m 245 34 l 245 937 l 0 937 l 56 1212 l 777 1211 l 726 938 l 522 939 l 524 -21 l 245 34 z "},"v":{"ha":838,"x_min":-24,"x_max":799,"o":"m 584 1003 l 799 936 l 488 -34 l 277 3 l -24 930 l 190 1006 l 382 336 l 584 1003 z "},"V":{"ha":1048,"x_min":-24,"x_max":999,"o":"m 731 1254 l 999 1171 l 613 -34 l 351 12 l -24 1163 l 241 1259 l 480 427 l 731 1254 z "},"à":{"ha":865,"x_min":1,"x_max":824,"o":"m 403 635 l 330 383 l 478 383 l 403 635 m 609 -26 l 545 191 l 275 191 l 215 -29 l 1 47 l 302 973 l 355 983 q 230 1104 290 1018 l 338 1229 q 413 1145 359 1190 q 514 1085 467 1099 l 450 1000 l 513 1011 l 824 41 l 609 -26 z "},"w":{"ha":1199,"x_min":-3,"x_max":1142,"o":"m 473 566 l 649 597 l 724 336 l 926 1003 l 1142 936 l 831 -34 l 621 3 l 570 156 l 509 -34 l 298 3 l -3 930 l 210 1006 l 403 336 l 473 566 z "},"W":{"ha":1435,"x_min":-3,"x_max":1367,"o":"m 567 708 l 777 747 l 868 425 l 1110 1249 l 1367 1166 l 996 -34 l 743 12 l 684 201 l 610 -34 l 358 12 l -3 1158 l 253 1254 l 483 425 l 567 708 z "},"x":{"ha":880,"x_min":-1,"x_max":839,"o":"m 0 104 l 273 490 l -1 878 l 197 1015 l 419 703 l 642 1021 l 838 882 l 564 494 l 839 106 l 644 -35 l 418 283 l 197 -33 l 0 104 z "},"X":{"ha":1076,"x_min":-1,"x_max":1025,"o":"m 1 135 l 334 607 l -1 1080 l 241 1249 l 513 866 l 785 1255 l 1024 1086 l 690 611 l 1025 138 l 787 -35 l 511 354 l 241 -33 l 1 135 z "},"y":{"ha":880,"x_min":-1,"x_max":838,"o":"m 537 18 l 311 -20 l 309 438 l -1 878 l 197 1015 l 419 703 l 642 1021 l 838 882 l 537 455 l 537 18 z "},"Y":{"ha":1088,"x_min":-1,"x_max":1037,"o":"m 665 28 l 384 -20 l 383 547 l -1 1090 l 243 1261 l 519 874 l 794 1267 l 1037 1096 l 665 568 l 665 28 z "},"z":{"ha":636,"x_min":0,"x_max":606,"o":"m 0 0 l 293 762 l 0 762 l 52 987 l 606 987 l 307 224 l 606 224 l 534 0 l 0 0 z "},"Z":{"ha":779,"x_min":0,"x_max":742,"o":"m 0 0 l 358 932 l 0 932 l 64 1208 l 742 1208 l 376 274 l 742 273 l 654 0 l 0 0 z "},"{":{"ha":1084,"x_min":1,"x_max":1032,"o":"m 459 1160 l 544 1177 q 564 1109 552 1179 q 573 1013 575 1040 q 899 845 766 992 q 1032 498 1032 697 q 892 142 1032 292 q 550 -20 751 -7 q 558 -78 553 -58 q 576 -138 563 -97 l 497 -159 q 471 -79 479 -123 q 458 -18 462 -35 q 133 151 265 4 q 1 498 1 298 q 140 851 1 702 q 479 1015 279 1000 q 471 1115 486 1072 q 459 1160 455 1159 m 528 854 q 553 745 526 812 q 581 644 581 688 q 553 540 581 601 q 533 449 534 488 q 553 355 532 410 q 578 243 578 282 q 549 148 578 205 l 551 147 q 781 259 688 157 q 874 500 874 360 q 772 748 874 645 q 527 854 671 850 l 528 854 m 374 754 q 434 694 434 754 q 374 635 434 635 q 314 694 314 635 q 374 754 314 754 m 442 848 l 441 846 q 243 721 321 819 q 164 500 164 623 q 251 264 164 360 q 467 151 338 169 l 467 150 q 493 244 497 207 q 465 355 490 282 q 446 449 444 410 q 465 540 447 488 q 492 644 492 601 q 465 745 492 688 q 442 848 442 802 m 662 -24 q 720 -83 720 -24 q 662 -140 720 -140 q 604 -83 604 -140 q 662 -24 604 -24 z "},"}":{"ha":1036,"x_min":-1,"x_max":987,"o":"m 493 987 q 842 842 696 987 q 987 493 987 696 q 842 144 987 288 q 493 -1 696 -1 q 144 144 288 -1 q -1 493 -1 288 q 144 842 -1 696 q 493 987 288 987 m 491 876 l 408 616 l 131 616 l 357 450 l 268 180 l 497 350 l 722 184 l 634 450 l 861 616 l 578 616 l 491 876 z "},"¥":{"ha":1008,"x_min":-1,"x_max":960,"o":"m 427 1165 q 365 1140 390 1165 q 340 1078 340 1114 q 365 1016 340 1042 q 427 991 390 991 q 488 1016 463 991 q 514 1078 514 1042 q 488 1140 514 1114 q 427 1165 463 1165 m 149 1162 q 87 1137 113 1162 q 62 1076 62 1111 q 87 1014 62 1039 q 149 988 113 988 q 211 1014 185 988 q 237 1076 237 1039 q 211 1137 237 1111 q 149 1162 185 1162 m 722 1170 q 660 1144 685 1170 q 635 1082 635 1118 q 660 1020 635 1046 q 722 995 685 995 q 783 1020 758 995 q 809 1082 809 1046 q 783 1144 809 1118 q 722 1170 758 1170 m 627 937 q 566 911 591 937 q 541 850 541 886 q 566 788 541 813 q 627 762 591 762 q 689 788 663 762 q 715 850 715 813 q 689 911 715 886 q 627 937 663 937 m 521 701 q 459 675 484 701 q 433 614 433 650 q 459 552 433 577 q 521 527 484 527 q 583 552 557 527 q 608 614 608 577 q 583 675 608 650 q 521 701 557 701 m 411 463 q 350 437 375 463 q 324 376 324 412 q 350 314 324 339 q 411 288 375 288 q 473 314 447 288 q 498 376 498 339 q 473 437 498 412 q 411 463 447 463 m 295 227 q 233 201 258 227 q 208 140 208 176 q 233 78 208 104 q 295 53 258 53 q 357 78 331 53 q 382 140 382 104 q 357 201 382 176 q 295 227 331 227 m 55 -1 l 515 937 l -1 937 l -1 1211 l 960 1211 l 401 -1 l 55 -1 z "}}}
